<svg width="99" height="97" viewBox="0 0 99 97" fill="none" xmlns="http://www.w3.org/2000/svg">
<rect width="99" height="97" rx="48.5" fill="#F7931D"/>
<path d="M68.4941 48.7593H64.4727C64.8826 49.8815 65.1065 51.0927 65.1065 52.355V67.5539C65.1065 68.0802 65.0149 68.5853 64.8482 69.0552H71.4966C73.9801 69.0552 76.0005 67.0347 76.0005 64.5513V56.2657C76.0006 52.1267 72.6332 48.7593 68.4941 48.7593Z" fill="white"/>
<path d="M34.8941 52.355C34.8941 51.0926 35.1181 49.8815 35.528 48.7593H31.5065C27.3674 48.7593 24 52.1267 24 56.2658V64.5514C24 67.0348 26.0204 69.0553 28.5039 69.0553H35.1524C34.9857 68.5852 34.8941 68.0802 34.8941 67.5539V52.355Z" fill="white"/>
<path d="M54.5986 44.8486H45.4049C41.2658 44.8486 37.8984 48.216 37.8984 52.3551V67.554C37.8984 68.383 38.5706 69.0553 39.3997 69.0553H60.6038C61.4329 69.0553 62.1051 68.3831 62.1051 67.554V52.3551C62.1051 48.216 58.7377 44.8486 54.5986 44.8486Z" fill="white"/>
<path d="M50.0002 24.9448C45.0224 24.9448 40.9727 28.9945 40.9727 33.9724C40.9727 37.3489 42.8362 40.2978 45.5884 41.846C46.8938 42.5803 48.3987 42.9999 50.0002 42.9999C51.6016 42.9999 53.1065 42.5803 54.4119 41.846C57.1642 40.2978 59.0276 37.3488 59.0276 33.9724C59.0276 28.9946 54.9779 24.9448 50.0002 24.9448Z" fill="white"/>
<path d="M34.1479 33.3589C30.4251 33.3589 27.3965 36.3875 27.3965 40.1103C27.3965 43.833 30.4251 46.8616 34.1479 46.8616C35.0922 46.8616 35.9914 46.666 36.8083 46.3144C38.2206 45.7064 39.3851 44.63 40.1057 43.2818C40.6115 42.3355 40.8992 41.256 40.8992 40.1103C40.8992 36.3876 37.8706 33.3589 34.1479 33.3589Z" fill="white"/>
<path d="M65.8529 33.3589C62.1302 33.3589 59.1016 36.3875 59.1016 40.1103C59.1016 41.2561 59.3893 42.3356 59.8951 43.2818C60.6157 44.6301 61.7802 45.7065 63.1925 46.3144C64.0094 46.666 64.9086 46.8616 65.8529 46.8616C69.5757 46.8616 72.6043 43.833 72.6043 40.1103C72.6043 36.3875 69.5757 33.3589 65.8529 33.3589Z" fill="white"/>
</svg>
