<svg width="67" height="65" viewBox="0 0 67 65" fill="none" xmlns="http://www.w3.org/2000/svg">
<rect width="66.3402" height="65" rx="32.5" fill="#F7931D"/>
<g clip-path="url(#clip0)">
<path d="M45.896 32.6738H43.2012C43.4759 33.4259 43.6259 34.2374 43.6259 35.0833V45.2681C43.6259 45.6208 43.5645 45.9593 43.4528 46.2742H47.908C49.5722 46.2742 50.926 44.9202 50.926 43.2561V37.7039C50.9261 34.9303 48.6696 32.6738 45.896 32.6738Z" fill="white"/>
<path d="M23.3822 35.0833C23.3822 34.2374 23.5323 33.4259 23.807 32.6738H21.1122C18.3385 32.6738 16.082 34.9303 16.082 37.704V43.2562C16.082 44.9203 17.4359 46.2742 19.1001 46.2742H23.5553C23.4436 45.9593 23.3822 45.6208 23.3822 45.2681V35.0833Z" fill="white"/>
<path d="M36.5854 30.0532H30.4247C27.651 30.0532 25.3945 32.3097 25.3945 35.0834V45.2682C25.3945 45.8237 25.8449 46.2742 26.4006 46.2742H40.6095C41.1651 46.2742 41.6155 45.8238 41.6155 45.2682V35.0834C41.6155 32.3097 39.359 30.0532 36.5854 30.0532Z" fill="white"/>
<path d="M33.5064 16.7158C30.1708 16.7158 27.457 19.4295 27.457 22.7652C27.457 25.0278 28.7058 27.0039 30.55 28.0413C31.4248 28.5334 32.4333 28.8146 33.5064 28.8146C34.5795 28.8146 35.588 28.5334 36.4627 28.0413C38.307 27.0039 39.5557 25.0277 39.5557 22.7652C39.5557 19.4296 36.842 16.7158 33.5064 16.7158Z" fill="white"/>
<path d="M22.8815 22.3542C20.3869 22.3542 18.3574 24.3837 18.3574 26.8784C18.3574 29.373 20.3869 31.4025 22.8815 31.4025C23.5143 31.4025 24.1169 31.2714 24.6643 31.0358C25.6107 30.6283 26.3911 29.9071 26.8739 29.0036C27.2129 28.3695 27.4057 27.6461 27.4057 26.8784C27.4057 24.3838 25.3762 22.3542 22.8815 22.3542Z" fill="white"/>
<path d="M44.1276 22.3542C41.633 22.3542 39.6035 24.3837 39.6035 26.8784C39.6035 27.6462 39.7963 28.3696 40.1353 29.0036C40.6181 29.9071 41.3985 30.6284 42.3449 31.0358C42.8923 31.2714 43.4948 31.4025 44.1276 31.4025C46.6223 31.4025 48.6518 29.373 48.6518 26.8784C48.6518 24.3837 46.6223 22.3542 44.1276 22.3542Z" fill="white"/>
</g>
<defs>
<clipPath id="clip0">
<rect width="34.8454" height="34.8454" fill="white" transform="translate(16.082 14.0723)"/>
</clipPath>
</defs>
</svg>
