<svg width="99" height="97" viewBox="0 0 99 97" fill="none" xmlns="http://www.w3.org/2000/svg">
<rect width="99" height="97" rx="48.5" fill="#F7931D"/>
<path d="M66.1367 50.8281C59.4725 50.8281 54.0508 56.2498 54.0508 62.9141C54.0508 69.5783 59.4725 75 66.1367 75C72.8569 75 78.3242 69.5783 78.3242 62.9141C78.3242 56.2498 72.8569 50.8281 66.1367 50.8281ZM69.8461 61.4519L65.7836 66.3269C65.4923 66.6763 65.0624 66.875 64.6134 66.875C64.555 66.875 64.4964 66.8716 64.4376 66.8648C63.9269 66.8055 63.4806 66.4927 63.2506 66.0328L61.6256 62.7828C61.2493 62.0304 61.5544 61.1152 62.3069 60.739C63.0594 60.3625 63.9746 60.6677 64.3508 61.4203L64.9341 62.5868L67.5054 59.5013C68.0441 58.855 69.0047 58.7678 69.651 59.3062C70.2974 59.8448 70.3848 60.8054 69.8461 61.4519Z" fill="white"/>
<path d="M65.4801 31.6788L59.2988 25.2866C59.2959 25.2835 59.2928 25.2804 59.2899 25.2773C57.8667 23.8301 55.8863 23 53.8568 23H34.2461C31.726 23 29.6758 25.0502 29.6758 27.5703V67.0781C29.6758 69.5982 31.726 71.6484 34.2461 71.6484H53.7857C52.0345 69.1792 51.0039 66.1649 51.0039 62.9141C51.0039 54.5698 57.7924 47.7812 66.1367 47.7812C66.6508 47.7812 67.1589 47.807 67.6602 47.8567V37.0136C67.6602 35.0058 66.8859 33.1116 65.4801 31.6788ZM45.8242 57.0234H37.6992C36.8579 57.0234 36.1758 56.3413 36.1758 55.5C36.1758 54.6587 36.8579 53.9766 37.6992 53.9766H45.8242C46.6656 53.9766 47.3477 54.6587 47.3477 55.5C47.3477 56.3413 46.6656 57.0234 45.8242 57.0234ZM45.8242 48.8984H37.6992C36.8579 48.8984 36.1758 48.2163 36.1758 47.375C36.1758 46.5337 36.8579 45.8516 37.6992 45.8516H45.8242C46.6656 45.8516 47.3477 46.5337 47.3477 47.375C47.3477 48.2163 46.6656 48.8984 45.8242 48.8984ZM45.8242 40.7734H37.6992C36.8579 40.7734 36.1758 40.0913 36.1758 39.25C36.1758 38.4087 36.8579 37.7266 37.6992 37.7266H45.8242C46.6656 37.7266 47.3477 38.4087 47.3477 39.25C47.3477 40.0913 46.6656 40.7734 45.8242 40.7734ZM55.5742 48.8984H53.9492C53.1079 48.8984 52.4258 48.2163 52.4258 47.375C52.4258 46.5337 53.1079 45.8516 53.9492 45.8516H55.5742C56.4156 45.8516 57.0977 46.5337 57.0977 47.375C57.0977 48.2163 56.4156 48.8984 55.5742 48.8984ZM55.5742 40.7734H53.9492C53.1079 40.7734 52.4258 40.0913 52.4258 39.25C52.4258 38.4087 53.1079 37.7266 53.9492 37.7266H55.5742C56.4156 37.7266 57.0977 38.4087 57.0977 39.25C57.0977 40.0913 56.4156 40.7734 55.5742 40.7734Z" fill="white"/>
</svg>
