<svg width="67" height="65" viewBox="0 0 67 65" fill="none" xmlns="http://www.w3.org/2000/svg">
<rect width="66.3402" height="65" rx="32.5" fill="#F7931D"/>
<g clip-path="url(#clip0)">
<path d="M44.3195 34.0601C39.8538 34.0601 36.2207 37.6932 36.2207 42.1589C36.2207 46.6246 39.8538 50.2577 44.3195 50.2577C48.8227 50.2577 52.4864 46.6246 52.4864 42.1589C52.4864 37.6932 48.8227 34.0601 44.3195 34.0601ZM46.8052 41.1791L44.0829 44.4458C43.8877 44.68 43.5996 44.8131 43.2987 44.8131C43.2596 44.8131 43.2203 44.8109 43.1809 44.8063C42.8387 44.7666 42.5396 44.557 42.3855 44.2488L41.2966 42.071C41.0445 41.5667 41.2489 40.9535 41.7532 40.7014C42.2574 40.4491 42.8707 40.6536 43.1228 41.1579L43.5137 41.9396L45.2367 39.872C45.5976 39.4389 46.2414 39.3804 46.6744 39.7412C47.1076 40.1022 47.1662 40.7459 46.8052 41.1791Z" fill="white"/>
<path d="M43.8793 21.2281L39.7372 16.9446C39.7352 16.9426 39.7332 16.9404 39.7312 16.9384C38.7775 15.9686 37.4505 15.4124 36.0905 15.4124H22.9493C21.2606 15.4124 19.8867 16.7862 19.8867 18.4749V44.9492C19.8867 46.6379 21.2606 48.0118 22.9493 48.0118H36.0429C34.8693 46.3572 34.1788 44.3373 34.1788 42.1589C34.1788 36.5674 38.7278 32.0183 44.3193 32.0183C44.6638 32.0183 45.0043 32.0356 45.3402 32.0689V24.8029C45.3402 23.4575 44.8214 22.1881 43.8793 21.2281ZM30.7078 38.2116H25.2632C24.6995 38.2116 24.2424 37.7545 24.2424 37.1907C24.2424 36.6269 24.6995 36.1698 25.2632 36.1698H30.7078C31.2716 36.1698 31.7287 36.6269 31.7287 37.1907C31.7287 37.7545 31.2716 38.2116 30.7078 38.2116ZM30.7078 32.767H25.2632C24.6995 32.767 24.2424 32.3099 24.2424 31.7461C24.2424 31.1823 24.6995 30.7253 25.2632 30.7253H30.7078C31.2716 30.7253 31.7287 31.1823 31.7287 31.7461C31.7287 32.3099 31.2716 32.767 30.7078 32.767ZM30.7078 27.3224H25.2632C24.6995 27.3224 24.2424 26.8653 24.2424 26.3015C24.2424 25.7377 24.6995 25.2807 25.2632 25.2807H30.7078C31.2716 25.2807 31.7287 25.7377 31.7287 26.3015C31.7287 26.8653 31.2716 27.3224 30.7078 27.3224ZM37.2413 32.767H36.1524C35.5886 32.767 35.1316 32.3099 35.1316 31.7461C35.1316 31.1823 35.5886 30.7253 36.1524 30.7253H37.2413C37.8051 30.7253 38.2622 31.1823 38.2622 31.7461C38.2622 32.3099 37.8051 32.767 37.2413 32.767ZM37.2413 27.3224H36.1524C35.5886 27.3224 35.1316 26.8653 35.1316 26.3015C35.1316 25.7377 35.5886 25.2807 36.1524 25.2807H37.2413C37.8051 25.2807 38.2622 25.7377 38.2622 26.3015C38.2622 26.8653 37.8051 27.3224 37.2413 27.3224Z" fill="white"/>
</g>
<defs>
<clipPath id="clip0">
<rect width="34.8454" height="34.8454" fill="white" transform="translate(18.7637 15.4124)"/>
</clipPath>
</defs>
</svg>
