<svg width="217" height="255" viewBox="0 0 217 255" fill="none" xmlns="http://www.w3.org/2000/svg">
<path d="M33.2324 0V224.499H216.002V0H33.2324Z" fill="#FFBE40"/>
<path d="M124.615 0H216V224.499H124.615V0Z" fill="#FF9F40"/>
<path d="M0 30.3647V254.864H182.769V30.3647H0Z" fill="#F3F5F9"/>
<path d="M91.3848 30.3647H182.769V254.864H91.3848V30.3647Z" fill="#E1E6F0"/>
<path d="M49.8449 93.1903L31.5098 76.7107L43.2568 66.1527L49.8449 72.0734L68.8944 54.9526L80.6415 65.5106L49.8449 93.1903Z" fill="#66CCA8"/>
<path d="M91.3848 75.165H149.539V90.0985H91.3848V75.165Z" fill="#C3CBD9"/>
<path d="M49.8449 137.991L31.5098 121.511L43.2568 110.953L49.8449 116.874L68.8944 99.7532L80.6415 110.311L49.8449 137.991Z" fill="#66CCA8"/>
<path d="M91.3848 119.965H149.539V134.899H91.3848V119.965Z" fill="#C3CBD9"/>
<path d="M49.8449 182.791L31.5098 166.311L43.2568 155.753L49.8449 161.674L68.8944 144.553L80.6415 155.111L49.8449 182.791Z" fill="#66CCA8"/>
<path d="M91.3848 164.766H149.539V179.699H91.3848V164.766Z" fill="#C3CBD9"/>
<path d="M49.8449 227.591L31.5098 211.112L43.2568 200.554L49.8449 206.474L68.8944 189.354L80.6415 199.911L49.8449 227.591Z" fill="#66CCA8"/>
<path d="M91.3848 209.566H149.539V224.499H91.3848V209.566Z" fill="#C3CBD9"/>
</svg>
