<svg width="67" height="65" viewBox="0 0 67 65" fill="none" xmlns="http://www.w3.org/2000/svg">
<rect width="66.3402" height="65" rx="32.5" fill="#F7931D"/>
<path d="M45.4803 45.04C45.4176 41.025 44.1668 37.3743 41.9429 34.7311C39.7319 32.104 36.7355 30.6572 33.5047 30.6572C30.2738 30.6572 27.2774 32.104 25.0664 34.7311C22.8446 37.3715 21.5946 41.0171 21.5293 45.0271C22.7856 45.6565 27.9845 48.0799 33.5047 48.0799C39.4738 48.0799 44.3152 45.6707 45.4803 45.04Z" fill="white"/>
<path d="M33.5047 29.5682C36.8123 29.5682 39.4937 26.8868 39.4937 23.5791C39.4937 20.2715 36.8123 17.5901 33.5047 17.5901C30.197 17.5901 27.5156 20.2715 27.5156 23.5791C27.5156 26.8868 30.197 29.5682 33.5047 29.5682Z" fill="white"/>
</svg>
