<svg width="99" height="97" viewBox="0 0 99 97" fill="none" xmlns="http://www.w3.org/2000/svg">
<rect width="99" height="97" rx="48.5" fill="#F7931D"/>
<path d="M67.8712 67.2135C67.7776 61.2219 65.911 55.7739 62.5923 51.8294C59.2928 47.909 54.8212 45.75 49.9998 45.75C45.1785 45.75 40.7069 47.909 37.4074 51.8294C34.0918 55.7698 32.2264 61.2101 32.1289 67.1943C34.0037 68.1335 41.7621 71.75 49.9998 71.75C58.9077 71.75 66.1325 68.1547 67.8712 67.2135Z" fill="white"/>
<path d="M50 44.125C54.936 44.125 58.9375 40.1235 58.9375 35.1875C58.9375 30.2515 54.936 26.25 50 26.25C45.064 26.25 41.0625 30.2515 41.0625 35.1875C41.0625 40.1235 45.064 44.125 50 44.125Z" fill="white"/>
</svg>
